<svg xmlns="http://www.w3.org/2000/svg" viewBox="0 0 761.6 275.23"><defs><style>.cls-1{fill:#009245;}.cls-2{fill:#f7931e;}.cls-3{font-size:48px;fill:#fff;font-family:Lemon-Regular, Lemon;letter-spacing:0em;}</style></defs><g id="Camada_2" data-name="Camada 2"><g id="Camada_1-2" data-name="Camada 1"><path class="cls-1" d="M122.23,84c-33.46,28.89-72,64-117,93-9.64,6.21-3,60-3,60,10.22,22.31,29.64,43.63,54.25,37,18.34-4.94,40.06-16,45-32,.15-.47,0-10,0-10s1.85-38.74,0-47c0,0,84.45-105.95,86.75-103,1.78,2.29-77,100-77,100-8.84,32.39-1,50.12,2,56,1.18,2.31,15.58,35.59,46.25,36,25.9.35,55.89-22.73,53.75-42-2-18-.67-19.46,1.25-47,0,0,45.74-101,45.75-101h0c-31.49,67.09-36.75,99-36.75,99-3.95,20.95-3.25,60-3.25,60,3.06,6.32,21.83,26.08,45.25,30,24.14,4,47.66-15.17,55.75-35,1.45-3.56,3-9,2.68-9.11S322.48,173,322.23,173c0,0,18-89,14-88s13,0,13,0c-14,49-6,26-14,49-3.33,9.6-7,106-7,106,3.26,5.85,25.79,34.11,51.25,34,21.22-.09,50.77-12.88,53-33l-13-156c0,1,5.75,1,5.75,1l9,57c-1.6,76,8,103,8,103,8.39,14.6,27.61,29.62,49,28,26-2,42.84-20.14,45-25,9.2-20.71,6.08-54.47,3-73a574.66,574.66,0,0,1-40-86,8.37,8.37,0,0,0-2.3-3c-2.63-3.45-4.69-6-4.7-6s58.51,106,59.25,106c.26,0-8.08,28.89,1.75,50,8.31,17.85,19.29,39.71,43,37,24.54-2.81,44.38-25.05,47-30,0,0,15.85-63.06,5-72-17-14-77-88-76.92-87.91,3.23,3.58-12.4-5-12.08-6.09.55-1.86,6.28,2.8,28,14l77,84c3.49,30.75-9.24,40.44,1,62,7.13,15,24.56,36.46,47.25,36,29.86-.61,47.88-34.44,49-37,0,0,.26-50,0-50s-95-98-120-104C629.08,80,144.23,65,122.23,84Z"/><rect class="cls-2" x="38.78" width="681" height="85"/><text class="cls-3" transform="translate(63.35 63.56)">Minimercado Vilenuev</text></g></g></svg>